# xmcd
#
# Track frame offsets:
#	150
#	16116
#	34831
#	49908
#	75229
#	92995
#	107633
#	125023
#	141559
#	160879
#	179433
#	197129
#	211716
#	231297
#	245263
#	261229
#	275816
#	308345
#
# Disc length: 4478 seconds
#
# Revision: 0
# Processed by: cddbd v1.5.1PL0 Copyright (c) Steve Scherf et al.
# Submitted via: audiograbber 1.83.01
#
DISCID=f9117c12
DTITLE=Mysterio - Ride on Time
DYEAR=2005
DGENRE=New Wave
TTITLE0=I Was Made for Lovin You (Video edit)
TTITLE1=Innocent
TTITLE2=Fading Like a Flower
TTITLE3=Follow Me
TTITLE4=Intro Forever
TTITLE5=Our Hearts
TTITLE6=Everlasting Love 2005
TTITLE7=Children of the World
TTITLE8=What Music Does
TTITLE9=Sunlight
TTITLE10=There is a Star
TTITLE11=Take Me to the Stars
TTITLE12=Dancing
TTITLE13=Fading Like a Flower (East Rockerz radio remix)
TTITLE14=I Was Made for Lovin You (Video edit)
TTITLE15=Take Me to the Stars (Radio Cut)
TTITLE16=I Was Made for Lovin You (Extended version)
TTITLE17=Take Me to the Stars (Steve Twain Club mix)
EXTD=
EXTT0=
EXTT1=
EXTT2=
EXTT3=
EXTT4=
EXTT5=
EXTT6=
EXTT7=
EXTT8=
EXTT9=
EXTT10=
EXTT11=
EXTT12=
EXTT13=
EXTT14=
EXTT15=
EXTT16=
EXTT17=
PLAYORDER=
